<svg width="20" height="17" viewBox="0 0 20 17" fill="none" xmlns="http://www.w3.org/2000/svg">
<path d="M13.0002 4.41663C13.0002 3.87273 12.8242 3.34104 12.4946 2.88881C12.1649 2.43657 11.6964 2.0841 11.1482 1.87596C10.6 1.66782 9.99684 1.61336 9.4149 1.71947C8.83295 1.82558 8.2984 2.08749 7.87885 2.47208C7.45929 2.85668 7.17357 3.34668 7.05781 3.88013C6.94206 4.41358 7.00147 4.96651 7.22853 5.46901C7.45559 5.9715 7.84011 6.40099 8.33346 6.70317C8.8268 7.00534 9.40682 7.16663 10.0002 7.16663V8.99996L13.0002 4.41663ZM10.0002 8.99996L1.37617 14.0306C1.22636 14.1179 1.1115 14.2474 1.04885 14.3997C0.986204 14.552 0.979152 14.7187 1.02875 14.875C1.07836 15.0312 1.18193 15.1685 1.32392 15.2662C1.46591 15.3638 1.63865 15.4166 1.81617 15.4166H18.1842C18.3617 15.4166 18.5344 15.3638 18.6764 15.2662C18.8184 15.1685 18.922 15.0312 18.9716 14.875C19.0212 14.7187 19.0141 14.552 18.9515 14.3997C18.8888 14.2474 18.774 14.1179 18.6242 14.0306L10.0002 8.99996V8.99996Z" stroke="#0C0C0C" stroke-width="1.75" stroke-linecap="round" stroke-linejoin="round"/>
</svg>
