<svg width="20" height="20" viewBox="0 0 20 20" fill="none" xmlns="http://www.w3.org/2000/svg">
<path d="M17.6747 13.2427C17.1445 14.4964 16.3153 15.6012 15.2596 16.4605C14.2038 17.3197 12.9537 17.9072 11.6184 18.1717C10.2831 18.4362 8.90337 18.3695 7.59981 17.9775C6.29624 17.5856 5.10854 16.8803 4.14053 15.9233C3.17253 14.9662 2.4537 13.7867 2.04688 12.4877C1.64006 11.1887 1.55765 9.80978 1.80685 8.47157C2.05605 7.13336 2.62926 5.87656 3.47639 4.81107C4.32351 3.74557 5.41875 2.90381 6.66635 2.35938" stroke="white" stroke-width="2" stroke-linecap="round" stroke-linejoin="round"/>
<path d="M18.3333 10.0013C18.3333 8.90695 18.1178 7.82332 17.699 6.81227C17.2802 5.80123 16.6664 4.88257 15.8926 4.10875C15.1187 3.33492 14.2001 2.7211 13.189 2.30231C12.178 1.88352 11.0943 1.66797 10 1.66797V10.0013H18.3333Z" stroke="white" stroke-width="2" stroke-linecap="round" stroke-linejoin="round"/>
</svg>
