<svg width="15" height="13" viewBox="0 0 15 13" fill="none" xmlns="http://www.w3.org/2000/svg">
<path d="M0.416016 1.54167C0.416016 0.759263 1.05028 0.125 1.83268 0.125H13.166C13.9484 0.125 14.5827 0.759263 14.5827 1.54167V2.95833C14.5827 3.48751 14.2925 3.94892 13.8627 4.19217C13.8704 4.25202 13.8743 4.31304 13.8743 4.375V11.4583C13.8743 12.2408 13.2401 12.875 12.4577 12.875H2.54102C1.75861 12.875 1.12435 12.2408 1.12435 11.4583V4.375C1.12435 4.31304 1.12832 4.25202 1.13604 4.19217C0.706156 3.94892 0.416016 3.48751 0.416016 2.95833V1.54167ZM13.166 2.95833V1.54167H1.83268V2.95833H13.166ZM2.54102 4.375V11.4583H12.4577V4.375H2.54102ZM4.66602 6.5C4.66602 6.10879 4.98315 5.79167 5.37435 5.79167H9.62435C10.0156 5.79167 10.3327 6.10879 10.3327 6.5C10.3327 6.89121 10.0156 7.20833 9.62435 7.20833H5.37435C4.98315 7.20833 4.66602 6.89121 4.66602 6.5Z" fill="#616161"/>
</svg>
