<svg width="98" height="98" viewBox="0 0 98 98" fill="none" xmlns="http://www.w3.org/2000/svg">
<path d="M48.3973 43.9266C48.469 43.8351 48.5605 43.7611 48.6649 43.7102C48.7694 43.6593 48.8841 43.6328 49.0003 43.6328C49.1165 43.6328 49.2312 43.6593 49.3356 43.7102C49.4401 43.7611 49.5316 43.8351 49.6032 43.9266L60.3219 57.4877C60.4103 57.6005 60.4651 57.736 60.4802 57.8785C60.4952 58.021 60.4698 58.1649 60.4069 58.2937C60.344 58.4225 60.2462 58.531 60.1245 58.6068C60.0029 58.6826 59.8623 58.7226 59.719 58.7223H52.6466V81.9207C52.6466 82.3418 52.302 82.6863 51.8809 82.6863H46.1387C45.7177 82.6863 45.3731 82.3418 45.3731 81.9207V58.7318H38.2815C37.6403 58.7318 37.2862 57.9949 37.6786 57.4973L48.3973 43.9266Z" fill="#5932F3"/>
<path d="M20.3465 35.0943C24.7297 23.5334 35.8982 15.3125 48.9809 15.3125C62.0635 15.3125 73.232 23.5238 77.6152 35.0848C85.817 37.2381 91.875 44.7125 91.875 53.5938C91.875 64.1689 83.3096 72.7344 72.7439 72.7344H68.9062C68.4852 72.7344 68.1406 72.3898 68.1406 71.9688V66.2266C68.1406 65.8055 68.4852 65.4609 68.9062 65.4609H72.7439C75.9691 65.4609 79.0029 64.1785 81.2615 61.8529C83.5105 59.5369 84.7068 56.417 84.6016 53.1822C84.5154 50.6557 83.6541 48.2822 82.0941 46.282C80.4959 44.2436 78.2564 42.7602 75.7682 42.0998L72.141 41.1523L70.8107 37.6496C69.9877 35.4676 68.8393 33.4291 67.3941 31.582C65.9675 29.7513 64.2775 28.142 62.3793 26.8064C58.4459 24.0406 53.8139 22.5764 48.9809 22.5764C44.1479 22.5764 39.5158 24.0406 35.5824 26.8064C33.6779 28.1463 31.9936 29.7541 30.5676 31.582C29.1225 33.4291 27.974 35.4771 27.151 37.6496L25.8303 41.1428L22.2127 42.0998C17.0256 43.4971 13.3984 48.2152 13.3984 53.5938C13.3984 56.7615 14.633 59.7475 16.8725 61.9869C17.9707 63.0916 19.2772 63.9674 20.7162 64.5638C22.1553 65.1601 23.6983 65.465 25.2561 65.4609H29.0938C29.5148 65.4609 29.8594 65.8055 29.8594 66.2266V71.9688C29.8594 72.3898 29.5148 72.7344 29.0938 72.7344H25.2561C14.6904 72.7344 6.125 64.1689 6.125 53.5938C6.125 44.7221 12.1639 37.2572 20.3465 35.0943Z" fill="#5932F3"/>
</svg>
