<svg width="23" height="24" viewBox="0 0 23 24" fill="none" xmlns="http://www.w3.org/2000/svg">
<path d="M13 12C13 13.6569 11.6569 15 10 15C8.3431 15 7 13.6569 7 12C7 10.3431 8.3431 9 10 9C11.6569 9 13 10.3431 13 12Z" fill="#5932F3"/>
<path d="M19.8944 11.5528C17.7362 7.23635 13.9031 5 10 5C6.09687 5 2.26379 7.23635 0.10557 11.5528C-0.03519 11.8343 -0.03519 12.1657 0.10557 12.4472C2.26379 16.7637 6.09687 19 10 19C13.9031 19 17.7362 16.7637 19.8944 12.4472C20.0352 12.1657 20.0352 11.8343 19.8944 11.5528ZM10 17C7.03121 17 3.99806 15.3792 2.12966 12C3.99806 8.62078 7.03121 7 10 7C12.9688 7 16.0019 8.62078 17.8703 12C16.0019 15.3792 12.9688 17 10 17Z" fill="#5932F3"/>
</svg>
