<svg width="23" height="24" viewBox="0 0 23 24" fill="none" xmlns="http://www.w3.org/2000/svg">
<path d="M3.70711 3.29289C3.31658 2.90237 2.68342 2.90237 2.29289 3.29289C1.90237 3.68342 1.90237 4.31658 2.29289 4.70711L4.71706 7.13127C3.28639 8.20737 2.03925 9.68543 1.10557 11.5528C0.96481 11.8343 0.96481 12.1657 1.10557 12.4472C3.26379 16.7637 7.09687 19 11 19C12.5552 19 14.0992 18.645 15.5306 17.9448L18.2929 20.7071C18.6834 21.0976 19.3166 21.0976 19.7071 20.7071C20.0976 20.3166 20.0976 19.6834 19.7071 19.2929L3.70711 3.29289ZM14.0138 16.428C13.0343 16.8112 12.0134 17 11 17C8.03121 17 4.99806 15.3792 3.12966 12C3.94721 10.5214 4.98778 9.3794 6.14838 8.56259L8.29237 10.7066C8.10495 11.0982 8 11.5369 8 12C8 13.6569 9.3431 15 11 15C11.4631 15 11.9018 14.8951 12.2934 14.7076L14.0138 16.428Z" fill="#C5C5C5"/>
<path d="M17.5518 13.8955C18.0348 13.3402 18.4779 12.7088 18.8698 12C17.0014 8.62078 13.9682 7 10.9995 7C10.8875 7 10.7754 7.00231 10.6632 7.00693L8.87891 5.22258C9.57692 5.07451 10.287 5 10.9995 5C14.9026 5 18.7357 7.23635 20.8939 11.5528C21.0347 11.8343 21.0347 12.1657 20.8939 12.4472C20.3499 13.5352 19.6995 14.491 18.9684 15.3121L17.5518 13.8955Z" fill="#C5C5C5"/>
</svg>
