<svg width="13" height="10" viewBox="0 0 13 10" fill="none" xmlns="http://www.w3.org/2000/svg">
<path fill-rule="evenodd" clip-rule="evenodd" d="M12.6682 7.83062C12.6682 7.83062 7.19691 4.11527 6.98299 4.02537V3.28096C7.65823 3.0852 8.10974 2.43657 8.10974 1.67199C8.10974 0.749454 7.38715 0 6.50045 0C6.07196 0.00288849 5.66208 0.180533 5.3607 0.493972C5.05932 0.807411 4.89105 1.23105 4.89278 1.67199C4.89278 1.91817 5.08629 2.11645 5.32634 2.11645C5.56557 2.11645 5.67416 1.8291 5.67416 1.58293C5.67416 1.15275 6.11915 0.758696 6.52658 0.758696C6.93482 0.758696 7.36021 1.24181 7.36021 1.67199C7.36021 2.10133 6.90788 2.45169 6.49963 2.45169C6.25958 2.45169 6.11343 2.65081 6.11343 2.89615V4.00689C5.95177 4.06822 0.402104 7.83062 0.402104 7.83062C-0.00858892 8.26164 -0.567883 10 1.38679 10H11.659C13.4504 10 13.0609 8.24063 12.6682 7.83062ZM11.864 9.21358H1.16715C0.61929 9.21358 0.634803 8.57839 0.883832 8.30113L6.06771 4.9269C6.34776 4.77399 6.69967 4.75382 6.97646 4.92354L12.1775 8.30197C12.4281 8.57923 12.3661 9.21358 11.864 9.21358Z" fill="#29866B"/>
</svg>
