<svg width="118" height="35" viewBox="0 0 118 35" fill="none" xmlns="http://www.w3.org/2000/svg">
<path d="M58.442 17.2328C58.0445 16.6528 57.5078 16.2328 56.832 15.9728C56.1761 15.6928 55.4804 15.5528 54.7449 15.5528C54.3076 15.5528 53.8803 15.6028 53.4629 15.7028C53.0653 15.8028 52.6976 15.9628 52.3597 16.1828C52.0417 16.4028 51.7833 16.6928 51.5845 17.0528C51.3858 17.3928 51.2864 17.8028 51.2864 18.2828C51.2864 19.0028 51.5348 19.5528 52.0318 19.9328C52.5287 20.3128 53.1449 20.6428 53.8803 20.9228C54.6157 21.2028 55.4207 21.4728 56.2953 21.7328C57.1699 21.9928 57.9749 22.3528 58.7103 22.8128C59.4458 23.2728 60.062 23.8828 60.5589 24.6428C61.0558 25.4028 61.3042 26.4128 61.3042 27.6728C61.3042 28.8128 61.0955 29.8128 60.6781 30.6728C60.2607 31.5128 59.6942 32.2128 58.9787 32.7728C58.283 33.3328 57.468 33.7528 56.5338 34.0328C55.5996 34.3128 54.6157 34.4528 53.5821 34.4528C52.2703 34.4528 51.0081 34.2328 49.7956 33.7928C48.5831 33.3528 47.5396 32.6128 46.665 31.5728L49.4975 28.8128C49.9546 29.5128 50.5509 30.0628 51.2864 30.4628C52.0417 30.8428 52.8368 31.0328 53.6716 31.0328C54.1089 31.0328 54.5462 30.9728 54.9835 30.8528C55.4207 30.7328 55.8183 30.5528 56.1761 30.3128C56.5338 30.0728 56.8221 29.7728 57.0407 29.4128C57.2593 29.0328 57.3687 28.6028 57.3687 28.1228C57.3687 27.3428 57.1202 26.7428 56.6233 26.3228C56.1264 25.9028 55.5102 25.5528 54.7747 25.2728C54.0393 24.9728 53.2343 24.6928 52.3597 24.4328C51.4851 24.1728 50.6801 23.8228 49.9447 23.3828C49.2093 22.9228 48.5931 22.3228 48.0962 21.5828C47.5992 20.8228 47.3508 19.8128 47.3508 18.5528C47.3508 17.4528 47.5694 16.5028 48.0067 15.7028C48.4639 14.9028 49.0502 14.2428 49.7658 13.7228C50.5012 13.1828 51.3361 12.7828 52.2703 12.5228C53.2045 12.2628 54.1586 12.1328 55.1325 12.1328C56.2456 12.1328 57.319 12.3028 58.3526 12.6428C59.406 12.9828 60.3502 13.5428 61.185 14.3228L58.442 17.2328ZM62.9506 19.5128H66.8266L69.9274 29.5928H69.987L72.8791 19.5128H76.755L79.8558 29.5928H79.9154L82.8969 19.5128H86.5046L81.6447 33.9128H78.0967L74.6978 24.0728H74.6382L71.6268 33.9128H67.9298L62.9506 19.5128ZM97.563 31.9328H97.4735C96.9567 32.7528 96.3008 33.3528 95.5057 33.7328C94.7107 34.0928 93.8361 34.2728 92.882 34.2728C92.2261 34.2728 91.5801 34.1828 90.944 34.0028C90.3279 33.8228 89.7713 33.5528 89.2744 33.1928C88.7973 32.8328 88.4098 32.3828 88.1116 31.8428C87.8134 31.3028 87.6644 30.6728 87.6644 29.9528C87.6644 29.1728 87.8035 28.5128 88.0818 27.9728C88.3601 27.4128 88.7278 26.9528 89.1849 26.5928C89.662 26.2128 90.2086 25.9128 90.8248 25.6928C91.441 25.4728 92.077 25.3128 92.7329 25.2128C93.4087 25.0928 94.0846 25.0228 94.7604 25.0028C95.4362 24.9628 96.0722 24.9428 96.6685 24.9428H97.563V24.5528C97.563 23.6528 97.2549 22.9828 96.6387 22.5428C96.0225 22.0828 95.2374 21.8528 94.2833 21.8528C93.528 21.8528 92.8224 21.9928 92.1665 22.2728C91.5105 22.5328 90.944 22.8928 90.467 23.3528L88.5886 21.4628C89.3837 20.6428 90.308 20.0528 91.3614 19.6928C92.4348 19.3328 93.5379 19.1528 94.6709 19.1528C95.6846 19.1528 96.5393 19.2728 97.235 19.5128C97.9307 19.7328 98.5071 20.0228 98.9643 20.3828C99.4215 20.7428 99.7693 21.1628 100.008 21.6428C100.266 22.1028 100.445 22.5728 100.544 23.0528C100.664 23.5328 100.733 24.0028 100.753 24.4628C100.773 24.9028 100.783 25.2928 100.783 25.6328V33.9128H97.563V31.9328ZM97.3543 27.4628H96.6089C96.112 27.4628 95.5554 27.4828 94.9393 27.5228C94.3231 27.5628 93.7367 27.6628 93.1802 27.8228C92.6435 27.9628 92.1863 28.1828 91.8087 28.4828C91.431 28.7628 91.2422 29.1628 91.2422 29.6828C91.2422 30.0228 91.3118 30.3128 91.4509 30.5528C91.6099 30.7728 91.8087 30.9628 92.0472 31.1228C92.2857 31.2828 92.5541 31.4028 92.8522 31.4828C93.1504 31.5428 93.4485 31.5728 93.7467 31.5728C94.979 31.5728 95.8834 31.2828 96.4598 30.7028C97.0561 30.1028 97.3543 29.2928 97.3543 28.2728V27.4628ZM104.632 19.5128H108.031V21.8228H108.091C108.429 21.1028 108.946 20.4828 109.641 19.9628C110.337 19.4228 111.281 19.1528 112.474 19.1528C113.428 19.1528 114.233 19.3128 114.889 19.6328C115.565 19.9528 116.111 20.3728 116.529 20.8928C116.946 21.4128 117.244 22.0128 117.423 22.6928C117.602 23.3728 117.691 24.0828 117.691 24.8228V33.9128H114.114V26.6228C114.114 26.2228 114.094 25.7828 114.054 25.3028C114.014 24.8028 113.905 24.3428 113.726 23.9228C113.567 23.4828 113.309 23.1228 112.951 22.8428C112.593 22.5428 112.106 22.3928 111.49 22.3928C110.894 22.3928 110.387 22.4928 109.969 22.6928C109.572 22.8928 109.234 23.1628 108.956 23.5028C108.697 23.8428 108.508 24.2328 108.389 24.6728C108.27 25.1128 108.21 25.5728 108.21 26.0528V33.9128H104.632V19.5128Z" fill="#0C0C0C"/>
<path d="M37.9658 15.1078C37.9658 15.1078 37.3391 14.5408 36.9943 14.4805C36.9092 14.4657 36.7659 14.4916 36.7935 14.5742C37.1115 15.5306 37.0966 16.0282 37.0966 16.0282C37.0966 16.0282 38.5097 17.1272 38.74 17.3734C38.9702 17.6194 38.9678 17.4798 38.9378 17.3794C38.837 16.7784 38.2479 15.6146 37.9658 15.1078Z" fill="#5932F3"/>
<path fill-rule="evenodd" clip-rule="evenodd" d="M28.5665 22.11C28.6844 22.5874 28.9989 22.8472 29.3831 22.8472C29.7673 22.8472 30.0487 22.4966 30.0487 22.11C30.1648 20.5928 30.0058 18.309 29.9112 16.9516V16.9512C29.8762 16.4482 29.85 16.0722 29.85 15.91C29.85 13.8666 31.4964 12.2101 33.5272 12.2101C34.4262 12.2101 35.2497 12.5347 35.8885 13.0737C37.228 13.5487 38.2976 14.9968 38.2976 16.41C37.0718 16.41 35.7218 15.6914 35.103 14.61C34.7585 14.2408 34.269 14.0101 33.7259 14.0101C32.683 14.0101 31.8376 14.8606 31.8376 15.91C31.8724 16.3998 31.9438 17.195 32.0217 18.065V18.0652C32.1666 19.6818 32.3346 21.5566 32.3346 22.21C32.3346 22.4712 32.327 22.7304 32.3119 22.9874C31.9507 29.142 27.3215 34.01 21.1042 34.01C20.8649 34.01 20.6272 34.0028 20.3914 33.9886C19.5413 33.9374 18.7156 33.795 17.9239 33.571C19.2207 32.9512 20.202 31.739 20.5596 30.31C21.3686 27.1474 23.7102 24.5902 26.7277 23.4512C27.3809 23.386 28.0316 23.3048 28.6792 23.208C26.9327 21.1966 25.7587 18.7722 25.1887 16.2074C24.9991 15.3422 24.4552 14.5598 23.6246 14.0964C23.2408 13.8823 22.8247 13.8139 22.4141 13.7699C20.7902 13.6325 19.1666 13.3934 17.553 13.05C16.4797 12.0766 15.4419 11.0415 14.4581 9.93501C14.3091 9.76743 14.5101 9.52295 14.7058 9.63147C15.4537 10.0463 16.2127 10.4353 16.9816 10.7986C16.9388 10.7526 16.8959 10.7065 16.853 10.6603L16.852 10.6592C16.4032 10.1767 15.9478 9.68705 15.5219 9.17635C14.8877 8.41581 14.2863 7.63847 13.7178 6.84611C13.5888 6.66627 13.8085 6.44175 13.9938 6.56187C14.6475 6.98563 15.3139 7.38667 15.9834 7.77211C14.3918 5.64153 13.0424 3.39665 11.9323 1.07265C11.8287 0.855772 12.1316 0.679792 12.2775 0.870472C12.6517 1.35971 13.0389 1.84279 13.4374 2.32067C17.1648 6.79049 21.6572 10.2337 26.5602 12.6191C26.9277 12.8083 27.2916 13.0222 27.5737 13.3605C28.1843 14.0926 28.4135 15.019 28.2821 15.8952C27.98 17.9566 28.0635 20.0722 28.5665 22.11Z" fill="#5932F3"/>
<path fill-rule="evenodd" clip-rule="evenodd" d="M5.78636 10.42C5.22448 10.1564 4.6707 9.88323 4.12603 9.59897C3.91375 9.48817 3.71311 9.77649 3.89811 9.92899C5.88035 11.5631 8.04612 13.0239 10.3834 14.2781C9.61482 14.2135 8.84245 14.1333 8.07198 14.0273C7.8536 13.9972 7.74881 14.2941 7.94127 14.4022C8.78933 14.8786 9.66081 15.3274 10.5551 15.747C11.1556 16.0288 11.7739 16.2788 12.3833 16.5252C12.4421 16.549 12.5008 16.5728 12.5594 16.5966C11.71 16.5942 10.8587 16.5644 10.0066 16.5064C9.78363 16.4914 9.70414 16.7984 9.90955 16.887C11.4293 17.5418 12.9727 18.0864 14.5221 18.5448C13.7297 18.6152 12.9339 18.6618 12.1359 18.684C11.9154 18.6902 11.8625 18.9978 12.0708 19.0708C12.3509 19.169 12.6316 19.2638 12.9128 19.355C14.9412 18.9486 16.9179 18.3856 18.8286 17.6786C19.2192 17.5438 19.6249 17.429 20.0628 17.4598C21.0103 17.5264 21.8318 18.0042 22.3671 18.7078C23.8539 20.6502 25.7658 22.2582 27.9866 23.3424C28.2951 23.2814 28.6026 23.2168 28.9093 23.1488C27.0274 21.2648 25.6883 18.9288 24.9419 16.4102C24.6927 15.5604 24.096 14.818 23.2351 14.4141C22.8374 14.2275 22.4178 14.1884 22.0051 14.1733C16.5595 14.0963 11.042 12.886 5.78636 10.42Z" fill="#5932F3"/>
<path d="M0.370949 21.7735C0.983987 21.7995 1.60062 21.8117 2.22058 21.8117C8.01956 21.8117 13.5285 20.5623 18.4962 18.3165C18.8764 18.1547 19.2731 18.0117 19.7122 18.0117C20.6619 18.0117 21.5146 18.4307 22.0974 19.0949C23.8317 21.0601 26.0265 22.6079 28.5234 23.5151C26.0118 25.4501 23.264 27.1007 20.3312 28.3961C20.1694 28.4675 20.004 28.3057 20.0672 28.1397C20.2187 27.7425 20.3642 27.3423 20.5033 26.9389C19.7633 27.3103 19.0201 27.6775 18.258 28.0089C18.0966 28.0791 17.9338 27.9171 17.9979 27.7523C18.1571 27.3419 18.3097 26.9283 18.4556 26.5117C17.2704 26.9853 16.0644 27.4101 14.8298 27.7725C14.6196 27.8343 14.4848 27.5569 14.6577 27.4217C15.1454 27.0407 15.624 26.6485 16.0931 26.2455C14.6079 26.5711 13.0917 26.8223 11.5497 26.9795C11.3302 27.0019 11.249 26.7007 11.4462 26.6013C12.1601 26.2417 12.8617 25.8611 13.5503 25.4603C11.9536 25.7039 10.326 25.8665 8.67366 25.9193C8.4503 25.9265 8.3934 25.6143 8.6018 25.5333C9.39834 25.2233 10.1825 24.8883 10.9532 24.5293C10.2364 24.5681 9.50637 24.6117 8.7799 24.6117C7.79318 24.6117 6.81487 24.5755 5.84617 24.5043C5.62634 24.4883 5.5966 24.1745 5.80716 24.1089C6.54999 23.8775 7.28364 23.6217 8.00737 23.3533C5.36229 23.2107 2.78589 22.8077 0.303011 22.1695C0.0712877 22.1099 0.132031 21.7633 0.370949 21.7735Z" fill="#5932F3"/>
</svg>
