<svg width="14" height="12" viewBox="0 0 14 12" fill="none" xmlns="http://www.w3.org/2000/svg">
<path d="M9 1L13 2.25V5.375H11V10.375C11 10.5408 10.9298 10.6997 10.8047 10.8169C10.6797 10.9342 10.5101 11 10.3333 11H3.66667C3.48986 11 3.32029 10.9342 3.19526 10.8169C3.07024 10.6997 3 10.5408 3 10.375V5.375H1V2.25L5 1C5 1.49728 5.21071 1.97419 5.58579 2.32583C5.96086 2.67746 6.46957 2.875 7 2.875C7.53043 2.875 8.03914 2.67746 8.41421 2.32583C8.78929 1.97419 9 1.49728 9 1Z" stroke="#5932F3" stroke-linecap="round" stroke-linejoin="round"/>
</svg>