<svg width="19" height="15" viewBox="0 0 19 15" fill="none" xmlns="http://www.w3.org/2000/svg">
<path fill-rule="evenodd" clip-rule="evenodd" d="M17.9466 11.0934C17.9466 11.0934 10.1956 5.82997 9.89257 5.70261V4.64803C10.8492 4.37069 11.4888 3.4518 11.4888 2.36865C11.4888 1.06173 10.4651 0 9.20897 0C8.60194 0.00409203 8.02128 0.255755 7.59432 0.699794C7.16737 1.14383 6.92898 1.74399 6.93144 2.36865C6.93144 2.7174 7.20558 2.99831 7.54565 2.99831C7.88456 2.99831 8.0384 2.59123 8.0384 2.24248C8.0384 1.63306 8.66879 1.07482 9.24598 1.07482C9.82433 1.07482 10.427 1.75923 10.427 2.36865C10.427 2.97688 9.78616 3.47323 9.20781 3.47323C8.86774 3.47323 8.6607 3.75532 8.6607 4.10288V5.67643C8.43167 5.76332 0.569648 11.0934 0.569648 11.0934C-0.0121676 11.704 -0.804501 14.1667 1.96462 14.1667H16.5169C19.0547 14.1667 18.503 11.6742 17.9466 11.0934ZM16.8073 13.0526H1.65347C0.877327 13.0526 0.899304 12.1527 1.25209 11.7599L8.59592 6.97978C8.99267 6.76315 9.4912 6.73458 9.88332 6.97502L17.2514 11.7611C17.6065 12.1539 17.5186 13.0526 16.8073 13.0526Z" fill="#5932F3"/>
</svg>
