<svg width="13" height="15" viewBox="0 0 13 15" fill="none" xmlns="http://www.w3.org/2000/svg">
<path d="M6.72398 0.219668C7.0226 -0.0732225 7.50681 -0.0732225 7.80543 0.219668L10.0995 2.46967C10.3982 2.76257 10.3982 3.23743 10.0995 3.53033L7.80543 5.78033C7.50681 6.0732 7.0226 6.0732 6.72398 5.78033C6.42536 5.48744 6.42536 5.01256 6.72398 4.71967L7.71267 3.75H6.5C3.78704 3.75 1.52941 5.96421 1.52941 8.625C1.52941 11.2858 3.78704 13.5 6.5 13.5C9.21295 13.5 11.4706 11.2858 11.4706 8.625C11.4706 8.21078 11.8129 7.875 12.2353 7.875C12.6576 7.875 13 8.21078 13 8.625C13 12.1142 10.0576 15 6.5 15C2.94237 15 0 12.1142 0 8.625C0 5.13579 2.94237 2.25 6.5 2.25H7.71267L6.72398 1.28033C6.42536 0.987435 6.42536 0.512565 6.72398 0.219668Z" fill="#616161"/>
</svg>
