<svg width="21" height="21" viewBox="0 0 21 21" fill="none" xmlns="http://www.w3.org/2000/svg">
<path d="M10.5 3.5C10.0167 3.5 9.625 3.89176 9.625 4.375C9.625 5.85573 7.83474 6.59727 6.78771 5.55025C6.446 5.20853 5.89198 5.20853 5.55027 5.55025C5.20857 5.89195 5.20857 6.44598 5.55027 6.78768C6.59734 7.83475 5.8557 9.625 4.375 9.625C3.89176 9.625 3.5 10.0167 3.5 10.5C3.5 10.9833 3.89176 11.375 4.375 11.375C5.85581 11.375 6.59719 13.1653 5.55022 14.2123C5.20851 14.554 5.20851 15.108 5.55022 15.4498C5.89193 15.7915 6.44594 15.7915 6.78765 15.4498C7.83466 14.4028 9.625 15.1442 9.625 16.625C9.625 17.1083 10.0167 17.5 10.5 17.5C10.9833 17.5 11.375 17.1083 11.375 16.625C11.375 15.1442 13.1653 14.4027 14.2124 15.4497C14.5541 15.7915 15.1081 15.7915 15.4498 15.4497C15.7915 15.108 15.7915 14.554 15.4498 14.2123C14.4028 13.1653 15.1442 11.375 16.625 11.375C17.1083 11.375 17.5 10.9833 17.5 10.5C17.5 10.0167 17.1083 9.625 16.625 9.625C15.1443 9.625 14.4026 7.83479 15.4497 6.7877C15.7914 6.44598 15.7914 5.89197 15.4497 5.55026C15.108 5.20855 14.554 5.20855 14.2123 5.55026C13.1652 6.59732 11.375 5.85567 11.375 4.375C11.375 3.89176 10.9833 3.5 10.5 3.5ZM7.88214 4.1799C7.98196 2.82126 9.11584 1.75 10.5 1.75C11.8842 1.75 13.0181 2.82126 13.1178 4.1799C14.1491 3.2898 15.7084 3.3341 16.6871 4.31282C17.6659 5.29154 17.7102 6.85086 16.82 7.88214C18.1787 7.98193 19.25 9.11584 19.25 10.5C19.25 11.8842 18.1787 13.0181 16.8201 13.1178C17.7103 14.1491 17.6659 15.7084 16.6872 16.6872C15.7084 17.6659 14.1492 17.7102 13.1178 16.82C13.0181 18.1787 11.8842 19.25 10.5 19.25C9.11584 19.25 7.98193 18.1787 7.88214 16.82C6.85086 17.7102 5.29152 17.6659 4.31278 16.6872C3.33405 15.7084 3.28975 14.1491 4.17989 13.1178C2.82126 13.0181 1.75 11.8842 1.75 10.5C1.75 9.11584 2.82129 7.98193 4.17995 7.88214C3.28981 6.85086 3.33411 5.29154 4.31284 4.3128C5.29156 3.33408 6.85086 3.28978 7.88214 4.1799Z" fill="#4E4E4E"/>
<path d="M10.5 8.75C10.0359 8.75 9.59079 8.93436 9.26258 9.26258C8.93436 9.59079 8.75 10.0359 8.75 10.5C8.75 10.9641 8.93436 11.4092 9.26258 11.7374C9.59079 12.0656 10.0359 12.25 10.5 12.25C10.9641 12.25 11.4092 12.0656 11.7374 11.7374C12.0656 11.4092 12.25 10.9641 12.25 10.5C12.25 10.0359 12.0656 9.59079 11.7374 9.26258C11.4092 8.93436 10.9641 8.75 10.5 8.75ZM8.02512 8.02512C8.6815 7.36875 9.57171 7 10.5 7C11.4283 7 12.3185 7.36875 12.9748 8.02512C13.6313 8.6815 14 9.57171 14 10.5C14 11.4283 13.6313 12.3185 12.9748 12.9748C12.3185 13.6313 11.4283 14 10.5 14C9.57171 14 8.6815 13.6313 8.02512 12.9748C7.36875 12.3185 7 11.4283 7 10.5C7 9.57171 7.36875 8.6815 8.02512 8.02512Z" fill="#4E4E4E"/>
</svg>
