<svg width="59" height="46" viewBox="0 0 59 46" fill="none" xmlns="http://www.w3.org/2000/svg">
<path d="M50.9804 19.4529C50.9804 19.4529 50.1513 18.6969 49.695 18.6166C49.5825 18.5968 49.3929 18.6314 49.4294 18.7415C49.8502 20.0167 49.8304 20.6801 49.8304 20.6801C49.8304 20.6801 51.6999 22.1455 52.0047 22.4737C52.3092 22.8017 52.306 22.6156 52.2663 22.4817C52.133 21.6804 51.3535 20.1287 50.9804 19.4529Z" fill="#5932F3"/>
<path fill-rule="evenodd" clip-rule="evenodd" d="M38.5439 28.7912C38.6998 29.4278 39.1158 29.7742 39.6241 29.7742C40.1324 29.7742 40.5048 29.3067 40.5048 28.7912C40.6584 26.7683 40.448 23.7232 40.3228 21.9134V21.9128C40.2766 21.2422 40.2418 20.7408 40.2418 20.5246C40.2418 17.8 42.42 15.5913 45.1068 15.5913C46.2962 15.5913 47.3857 16.0241 48.2308 16.7428C50.003 17.3762 51.418 19.307 51.418 21.1912C49.7963 21.1912 48.0102 20.2331 47.1916 18.7912C46.7359 18.2989 46.0882 17.9913 45.3697 17.9913C43.9899 17.9913 42.8715 19.1254 42.8715 20.5246C42.9175 21.1776 43.012 22.2379 43.115 23.3979V23.3982C43.3067 25.5536 43.529 28.0534 43.529 28.9246C43.529 29.2728 43.519 29.6184 43.499 29.9611C43.0212 38.1672 36.8966 44.6579 28.6712 44.6579C28.3546 44.6579 28.0401 44.6483 27.7282 44.6294C26.6035 44.5611 25.5111 44.3712 24.4637 44.0726C26.1793 43.2462 27.4776 41.6299 27.9507 39.7246C29.021 35.5078 32.119 32.0982 36.1111 30.5795C36.9752 30.4926 37.8362 30.3843 38.693 30.2552C36.3822 27.5734 34.8292 24.3408 34.075 20.9211C33.8241 19.7675 33.1046 18.7243 32.0057 18.1064C31.4979 17.8209 30.9475 17.7297 30.4042 17.671C28.2557 17.4878 26.1078 17.1691 23.973 16.7112C22.553 15.4133 21.18 14.0332 19.8784 12.5579C19.6813 12.3344 19.9472 12.0085 20.2061 12.1532C21.1956 12.7062 22.1998 13.225 23.217 13.7094C23.1604 13.648 23.1036 13.5865 23.0468 13.525L23.0455 13.5235C22.4517 12.8801 21.8493 12.2273 21.2859 11.5463C20.4468 10.5323 19.6512 9.49583 18.8991 8.43935C18.7283 8.19956 19.019 7.9002 19.2641 8.06036C20.129 8.62537 21.0106 9.16009 21.8963 9.67401C19.7906 6.83324 18.0055 3.84007 16.5368 0.7414C16.3997 0.452227 16.8005 0.217587 16.9935 0.471827C17.4886 1.12415 18.0008 1.76825 18.528 2.40543C23.4594 8.36519 29.4028 12.9561 35.8894 16.1367C36.3757 16.3889 36.8572 16.6741 37.2303 17.1251C38.0382 18.1013 38.3414 19.3366 38.1675 20.5048C37.7678 23.2534 37.8783 26.0742 38.5439 28.7912Z" fill="#5932F3"/>
<path fill-rule="evenodd" clip-rule="evenodd" d="M8.40711 13.2039C7.66375 12.8524 6.93109 12.4882 6.21051 12.1092C5.92966 11.9614 5.66422 12.3459 5.90896 12.5492C8.53147 14.7281 11.3968 16.6758 14.489 18.348C13.4722 18.2618 12.4503 18.155 11.431 18.0136C11.1421 17.9735 11.0034 18.3694 11.2581 18.5135C12.38 19.1487 13.533 19.7471 14.7161 20.3066C15.5106 20.6823 16.3287 21.0157 17.1349 21.3442C17.2126 21.3759 17.2903 21.4076 17.3678 21.4394C16.2441 21.4362 15.1178 21.3965 13.9905 21.3191C13.6955 21.2991 13.5903 21.7085 13.8621 21.8266C15.8727 22.6997 17.9146 23.4258 19.9645 24.037C18.9161 24.1309 17.8633 24.193 16.8075 24.2226C16.5158 24.2309 16.4458 24.641 16.7214 24.7383C17.092 24.8693 17.4634 24.9956 17.8354 25.1172C20.519 24.5754 23.1341 23.8247 25.662 22.8821C26.1787 22.7023 26.7154 22.5492 27.2948 22.5903C28.5483 22.6791 29.6352 23.3162 30.3434 24.2543C32.3104 26.8442 34.8399 28.9882 37.778 30.4338C38.1862 30.3525 38.593 30.2663 38.9987 30.1757C36.5089 27.6637 34.7373 24.549 33.7499 21.1908C33.4201 20.0578 32.6307 19.0679 31.4918 18.5294C30.9656 18.2806 30.4104 18.2285 29.8645 18.2083C22.6599 18.1056 15.3603 16.4919 8.40711 13.2039Z" fill="#5932F3"/>
<path d="M1.24076 28.34C2.05181 28.3746 2.86762 28.3909 3.68782 28.3909C11.3599 28.3909 18.6482 26.725 25.2204 23.7306C25.7234 23.5149 26.2483 23.3242 26.8292 23.3242C28.0857 23.3242 29.2138 23.8829 29.9848 24.7685C32.2792 27.3888 35.1829 29.4525 38.4864 30.6621C35.1635 33.2421 31.5282 35.4429 27.6481 37.1701C27.434 37.2653 27.2153 37.0496 27.2989 36.8282C27.4993 36.2986 27.6918 35.765 27.8758 35.2272C26.8968 35.7224 25.9136 36.212 24.9053 36.6538C24.6918 36.7474 24.4764 36.5314 24.5611 36.3117C24.7718 35.7645 24.9737 35.213 25.1667 34.6576C23.5986 35.289 22.0032 35.8554 20.3698 36.3386C20.0917 36.421 19.9133 36.0512 20.1421 35.8709C20.7873 35.3629 21.4205 34.84 22.0411 34.3026C20.0762 34.7368 18.0703 35.0717 16.0302 35.2813C15.7398 35.3112 15.6324 34.9096 15.8933 34.777C16.8378 34.2976 17.7661 33.7901 18.677 33.2557C16.5646 33.5805 14.4113 33.7973 12.2252 33.8677C11.9297 33.8773 11.8544 33.461 12.1302 33.353C13.184 32.9397 14.2214 32.493 15.2411 32.0144C14.2927 32.0661 13.3269 32.1242 12.3658 32.1242C11.0604 32.1242 9.76605 32.076 8.48447 31.981C8.19363 31.9597 8.15429 31.5413 8.43285 31.4538C9.41562 31.1453 10.3862 30.8042 11.3437 30.4464C7.8443 30.2562 4.43573 29.7189 1.15088 28.868C0.844311 28.7885 0.924674 28.3264 1.24076 28.34Z" fill="#5932F3"/>
</svg>
