<svg width="27" height="27" viewBox="0 0 27 27" fill="none" xmlns="http://www.w3.org/2000/svg">
<path d="M10.3333 7.33333C10.3333 6.59695 10.9303 6 11.6667 6H15.6667C16.4031 6 17 6.59695 17 7.33333V8.66667H18.3265C18.3306 8.66663 18.3347 8.66663 18.3389 8.66667H19.6667C20.0349 8.66667 20.3333 8.96515 20.3333 9.33333C20.3333 9.70152 20.0349 10 19.6667 10H18.9541L18.3759 18.095C18.326 18.7927 17.7455 19.3333 17.0459 19.3333H10.2874C9.58789 19.3333 9.00731 18.7927 8.95747 18.095L8.37925 10H7.66667C7.29848 10 7 9.70152 7 9.33333C7 8.96515 7.29848 8.66667 7.66667 8.66667H8.99449C8.99863 8.66663 9.00276 8.66663 9.00688 8.66667H10.3333V7.33333ZM11.6667 8.66667H15.6667V7.33333H11.6667V8.66667ZM9.71599 10L10.2874 18H17.0459L17.6173 10H9.71599ZM12.3333 11.3333C12.7015 11.3333 13 11.6318 13 12V16C13 16.3682 12.7015 16.6667 12.3333 16.6667C11.9651 16.6667 11.6667 16.3682 11.6667 16V12C11.6667 11.6318 11.9651 11.3333 12.3333 11.3333ZM15 11.3333C15.3682 11.3333 15.6667 11.6318 15.6667 12V16C15.6667 16.3682 15.3682 16.6667 15 16.6667C14.6318 16.6667 14.3333 16.3682 14.3333 16V12C14.3333 11.6318 14.6318 11.3333 15 11.3333Z" fill="#5932F3"/>
<circle cx="13.5" cy="13.5" r="13.5" fill="#5932F3" fill-opacity="0.12"/>
</svg>
