<svg width="14" height="14" viewBox="0 0 14 14" fill="none" xmlns="http://www.w3.org/2000/svg">
<path d="M3.33333 1.375C3.33333 0.615608 3.93029 0 4.66667 0H8.66667C9.40307 0 10 0.615608 10 1.375V2.75H11.3265C11.3306 2.74996 11.3347 2.74996 11.3389 2.75H12.6667C13.0349 2.75 13.3333 3.05781 13.3333 3.4375C13.3333 3.81719 13.0349 4.125 12.6667 4.125H11.9541L11.3759 12.473C11.326 13.1925 10.7455 13.75 10.0459 13.75H3.28741C2.58789 13.75 2.00731 13.1925 1.95747 12.473L1.37925 4.125H0.666667C0.29848 4.125 0 3.81719 0 3.4375C0 3.05781 0.29848 2.75 0.666667 2.75H1.99449C1.99863 2.74996 2.00276 2.74996 2.00688 2.75H3.33333V1.375ZM4.66667 2.75H8.66667V1.375H4.66667V2.75ZM2.71599 4.125L3.28741 12.375H10.0459L10.6173 4.125H2.71599ZM5.33333 5.5C5.70153 5.5 6 5.80779 6 6.1875V10.3125C6 10.6922 5.70153 11 5.33333 11C4.96515 11 4.66667 10.6922 4.66667 10.3125V6.1875C4.66667 5.80779 4.96515 5.5 5.33333 5.5ZM8 5.5C8.3682 5.5 8.66667 5.80779 8.66667 6.1875V10.3125C8.66667 10.6922 8.3682 11 8 11C7.6318 11 7.33333 10.6922 7.33333 10.3125V6.1875C7.33333 5.80779 7.6318 5.5 8 5.5Z" fill="#949494"/>
</svg>
